<svg xmlns="http://www.w3.org/2000/svg" viewBox="0 0 640 480" fill="none">
  <rect width="640" height="480" rx="32" fill="#FFF6E0"/>
  <rect x="156" y="80" width="280" height="320" rx="24" fill="#fff"/>
  <rect x="192" y="120" width="140" height="16" rx="8" fill="#FFC107"/>
  <rect x="192" y="168" width="208" height="44" rx="12" fill="#F8F9FA"/>
  <rect x="208" y="184" width="120" height="10" rx="5" fill="#212529"/>
  <rect x="192" y="232" width="160" height="12" rx="6" fill="#DEE2E6"/>
  <rect x="192" y="260" width="188" height="12" rx="6" fill="#DEE2E6"/>
  <rect x="192" y="288" width="112" height="12" rx="6" fill="#DEE2E6"/>
  <g transform="translate(392 250) rotate(-28)">
    <rect x="0" y="18" width="18" height="78" rx="4" fill="#FD7E14"/>
    <path d="M0 18 L9 0 L18 18 Z" fill="#212529"/>
    <rect x="0" y="84" width="18" height="16" rx="3" fill="#FFC107"/>
  </g>
  <circle cx="112" cy="164" r="22" fill="#0D6EFD" opacity="0.25"/>
</svg>
